<?xml version="1.0" encoding="utf-8"?>
<!-- Generator: Adobe Illustrator 20.0.0, SVG Export Plug-In . SVG Version: 6.00 Build 0)  -->
<svg version="1.1" id="Layer_1" xmlns="http://www.w3.org/2000/svg" xmlns:xlink="http://www.w3.org/1999/xlink" x="0px" y="0px"
	 viewBox="0 0 45.1 42.1" style="enable-background:new 0 0 45.1 42.1;" xml:space="preserve">
<style type="text/css">
	.st0{fill:#A67C52;}
	.st1{fill:#BF8E5E;}
	.st2{fill:#CCA75C;}
	.st3{fill:#FFD073;}
</style>
<title>icon-mask</title>
<g id="Handle_1_">
	<g>
		<path class="st0" d="M26.9,5.9h-8.6c-1.2,0-2.2,1-2.2,2.2v1.1h2.2c0-0.6,0.5-1.1,1.1-1.1h6.5c0.6,0,1.1,0.5,1.1,1.1H29V8.1
			C29,6.9,28,5.9,26.9,5.9z"/>
	</g>
</g>
<g id="Body_1_">
	<g>
		<path class="st0" d="M37.6,10.2H7.4c-1.2,0-2.2,1-2.2,2.2V34c0,1.2,1,2.2,2.2,2.2h30.2c1.2,0,2.2-1,2.2-2.2V12.4
			C39.8,11.2,38.8,10.2,37.6,10.2z"/>
	</g>
</g>
<g id="Flap">
	<g>
		<path class="st1" d="M37.6,9.2H7.4c-1.2,0-2.2,1-2.2,2.2L6.4,21c0,1.2,1,2.2,2.2,2.2l10.8,2.2h6.5l10.8-2.2c1.2,0,2.2-1,2.2-2.2
			l1.1-9.7C39.8,10.1,38.8,9.2,37.6,9.2z"/>
	</g>
</g>
<g id="Lock_2_">
	<g>
		<path class="st2" d="M19.3,25.3v1.1c0,0.6,0.5,1.1,1.1,1.1h4.3c0.6,0,1.1-0.5,1.1-1.1v-1.1H19.3z"/>
	</g>
</g>
<g id="Lock_3_">
	<g>
		<path class="st3" d="M24.7,21h-4.3c-0.6,0-1.1,0.5-1.1,1.1v3.2h6.5v-3.2C25.8,21.5,25.3,21,24.7,21z"/>
	</g>
</g>
</svg>
