<svg id="Layer_1" data-name="Layer 1" xmlns="http://www.w3.org/2000/svg" viewBox="0 0 45.08 42.06">
  <defs>
    <style>
      .cls-1 {
        fill: #010101;
      }
    </style>
  </defs>
  <title>icon-mask</title>
  <path class="cls-1" d="M19.54,9.88H29.72A4.15,4.15,0,0,0,25.6,6.19h-2a4.15,4.15,0,0,0-4.11,3.69h0ZM10.41,30.48H4a1.93,1.93,0,0,1-1.93-2L2.76,11.75A1.94,1.94,0,0,1,4.7,9.88h12a7,7,0,0,1,7-6.52h2a7,7,0,0,1,7,6.52h12a1.94,1.94,0,0,1,1.94,1.86l0.67,16.72a1.93,1.93,0,0,1-1.93,2H38.84v-3.8a1.42,1.42,0,0,0-1.65-1.4A1.47,1.47,0,0,0,36,26.75v3.72H13.24V26.75a1.47,1.47,0,0,0-1.18-1.47,1.42,1.42,0,0,0-1.65,1.4v3.8Zm34.84,2.83L46,42.91a2.33,2.33,0,0,1-2.32,2.52H5.59a2.33,2.33,0,0,1-2.32-2.55l0.91-9.57h6.23v3.52a1.42,1.42,0,1,0,2.83,0V33.31H36v3.52a1.42,1.42,0,0,0,2.83,0V33.31h6.41Z" transform="translate(-2.09 -3.36)"/>
</svg>
