<?xml version="1.0" encoding="utf-8"?>
<!-- Generator: Adobe Illustrator 20.0.0, SVG Export Plug-In . SVG Version: 6.00 Build 0)  -->
<svg version="1.1" id="Layer_1" xmlns="http://www.w3.org/2000/svg" xmlns:xlink="http://www.w3.org/1999/xlink" x="0px" y="0px"
	 viewBox="0 0 45.1 42.1" style="enable-background:new 0 0 45.1 42.1;" xml:space="preserve">
<style type="text/css">
	.st0{fill:#A67C52;}
	.st1{fill:#BF8E5E;}
	.st2{fill:#CCA75C;}
	.st3{fill:#FFD073;}
</style>
<title>icon</title>
<g id="Handle_1_">
	<g>
		<path class="st0" d="M26.9,6.4h-8.6c-1.2,0-2.2,1-2.2,2.2v1.1h2.2c0-0.6,0.5-1.1,1.1-1.1h6.5c0.6,0,1.1,0.5,1.1,1.1H29V8.6
			C29,7.4,28.1,6.4,26.9,6.4z"/>
	</g>
</g>
<g id="Body_1_">
	<g>
		<path class="st0" d="M37.6,10.7H7.5c-1.2,0-2.2,1-2.2,2.2v21.6c0,1.2,1,2.2,2.2,2.2h30.2c1.2,0,2.2-1,2.2-2.2V12.9
			C39.8,11.7,38.8,10.7,37.6,10.7z"/>
	</g>
</g>
<g id="Flap">
	<g>
		<path class="st1" d="M37.6,9.6H7.5c-1.2,0-2.2,1-2.2,2.2l1.1,9.7c0,1.2,1,2.2,2.2,2.2l10.8,2.2h6.5l10.8-2.2c1.2,0,2.2-1,2.2-2.2
			l1.1-9.7C39.8,10.6,38.8,9.6,37.6,9.6z"/>
	</g>
</g>
<g id="Lock_2_">
	<g>
		<path class="st2" d="M19.3,25.8v1.1c0,0.6,0.5,1.1,1.1,1.1h4.3c0.6,0,1.1-0.5,1.1-1.1v-1.1H19.3z"/>
	</g>
</g>
<g id="Lock_3_">
	<g>
		<path class="st3" d="M24.7,21.5h-4.3c-0.6,0-1.1,0.5-1.1,1.1v3.2h6.5v-3.2C25.8,22,25.3,21.5,24.7,21.5z"/>
	</g>
</g>
</svg>
