<?xml version="1.0" encoding="utf-8"?>
<!-- Generator: Adobe Illustrator 19.2.1, SVG Export Plug-In . SVG Version: 6.00 Build 0)  -->
<svg version="1.1" id="Layer_1" xmlns="http://www.w3.org/2000/svg" xmlns:xlink="http://www.w3.org/1999/xlink" x="0px" y="0px"
	 viewBox="0 0 45.1 42.1" style="enable-background:new 0 0 45.1 42.1;" xml:space="preserve">
<style type="text/css">
	.st0{fill:#3858B0;}
</style>
<title>icon</title>
<path class="st0" d="M17.5,6.5h10.2c-0.2-2.1-2-3.7-4.1-3.7h-2C19.4,2.8,17.6,4.4,17.5,6.5L17.5,6.5L17.5,6.5z M8.3,27.1H1.9
	c-1.1,0-1.9-0.9-1.9-1.9c0,0,0,0,0-0.1L0.7,8.4c0-1,0.9-1.9,1.9-1.9h12c0.3-3.7,3.3-6.5,7-6.5h2c3.7,0,6.7,2.8,7,6.5h12
	c1,0,1.9,0.8,1.9,1.9l0.7,16.7c0,1.1-0.8,2-1.9,2c0,0,0,0-0.1,0h-6.5v-3.8c0-0.8-0.6-1.4-1.4-1.4c-0.1,0-0.2,0-0.2,0
	c-0.7,0.1-1.2,0.8-1.2,1.5v3.7H11.1v-3.7c0-0.7-0.5-1.3-1.2-1.5c-0.8-0.1-1.5,0.4-1.6,1.2c0,0.1,0,0.2,0,0.2V27.1z M43.2,29.9
	l0.8,9.6c0.1,1.3-0.8,2.4-2.1,2.5c-0.1,0-0.1,0-0.2,0H3.5c-1.3,0-2.3-1-2.3-2.3c0-0.1,0-0.1,0-0.2L2.1,30h6.2v3.5
	c-0.1,0.8,0.5,1.5,1.3,1.5s1.5-0.5,1.5-1.3c0-0.1,0-0.2,0-0.2V30h22.8v3.5c0.1,0.8,0.8,1.4,1.5,1.3c0.7-0.1,1.2-0.6,1.3-1.3V30
	L43.2,29.9L43.2,29.9z"/>
</svg>
